<svg id="Capa_1" fill="white"  enable-background="new 0 0 511.856 511.856" height="512" viewBox="0 0 511.856 511.856" width="512" xmlns="http://www.w3.org/2000/svg"><g><path d="m490.526 219.984h-18.376c-2.704-16.391-7.283-32.456-13.615-47.769l15.577-9.691c9.986-6.213 13.056-19.393 6.844-29.379l-15.44-24.817c-6.213-9.987-19.392-13.057-29.379-6.844l-15.622 9.719c-8.109-9.212-17.059-17.806-26.619-25.56l9.083-16.006c2.812-4.955 3.526-10.709 2.011-16.201s-5.079-10.065-10.034-12.878l-25.42-14.426c-4.955-2.812-10.708-3.525-16.201-2.011-5.492 1.515-10.066 5.079-12.878 10.034l-9.057 15.959c-12.78-4.687-26.071-8.187-39.526-10.407v-18.377c0-11.761-9.569-21.33-21.33-21.33h-29.229c-11.761 0-21.33 9.569-21.33 21.33v18.377c-13.455 2.221-26.747 5.72-39.526 10.407l-9.057-15.959c-2.812-4.955-7.386-8.519-12.878-10.034-5.492-1.516-11.246-.801-16.201 2.011l-25.42 14.426c-4.955 2.813-8.519 7.386-10.034 12.878-1.516 5.492-.801 11.246 2.011 16.201l9.083 16.006c-9.56 7.753-18.511 16.348-26.619 25.56l-15.623-9.719c-9.986-6.213-23.167-3.143-29.378 6.844l-15.44 24.818c-6.212 9.986-3.143 23.166 6.844 29.379l15.577 9.691c-6.333 15.313-10.911 31.378-13.615 47.769h-18.378c-11.762-.001-21.331 9.568-21.331 21.329v29.229c0 11.761 9.569 21.33 21.331 21.33h18.376c2.704 16.391 7.283 32.456 13.615 47.769l-15.577 9.691c-9.986 6.213-13.056 19.393-6.844 29.379l15.44 24.818c6.212 9.986 19.392 13.056 29.379 6.844l15.622-9.719c8.109 9.212 17.06 17.807 26.62 25.56l-9.083 16.006c-2.812 4.955-3.526 10.709-2.011 16.201s5.079 10.065 10.034 12.878l25.42 14.426c4.956 2.813 10.709 3.526 16.201 2.011s10.066-5.079 12.878-10.034l9.057-15.959c12.779 4.687 26.071 8.186 39.526 10.407v18.376c0 11.762 9.569 21.331 21.33 21.331h29.229c11.761 0 21.33-9.569 21.33-21.331v-18.376c13.456-2.221 26.747-5.72 39.526-10.407l9.057 15.959c2.812 4.955 7.386 8.519 12.878 10.034 5.494 1.517 11.247.801 16.201-2.011l25.42-14.426c4.955-2.813 8.519-7.386 10.034-12.878 1.516-5.492.801-11.246-2.011-16.201l-9.083-16.006c9.559-7.752 18.51-16.348 26.62-25.56l15.622 9.719c9.985 6.212 23.165 3.143 29.378-6.844l15.44-24.818c6.212-9.986 3.143-23.166-6.844-29.379l-15.578-9.691c.91-2.205 1.833-4.576 2.884-7.406 1.442-3.883-.537-8.2-4.419-9.642-3.881-1.443-8.199.537-9.642 4.419-1.07 2.881-1.991 5.238-2.899 7.416-2.708 6.498-.34 13.91 5.63 17.624l16.101 10.017c2.964 1.844 3.875 5.755 2.031 8.719l-15.44 24.818c-1.845 2.964-5.755 3.874-8.719 2.031l-16.146-10.045c-5.964-3.709-13.652-2.567-18.28 2.72-7.783 8.892-16.407 17.173-25.633 24.613-5.471 4.41-6.924 12.046-3.456 18.156l9.388 16.542c.834 1.471 1.047 3.178.597 4.808s-1.507 2.987-2.978 3.822l-25.42 14.426c-1.471.835-3.178 1.046-4.808.597-1.63-.45-2.987-1.508-3.822-2.978l-9.361-16.494c-3.469-6.114-10.779-8.781-17.382-6.337-12.234 4.525-24.98 7.881-37.883 9.974-6.955 1.128-12.002 7.054-12.002 14.092v18.994c0 3.491-2.84 6.331-6.33 6.331h-29.229c-3.49 0-6.33-2.84-6.33-6.331v-18.994c0-7.038-5.048-12.964-12.002-14.092-12.903-2.093-25.649-5.449-37.883-9.974-6.603-2.443-13.914.222-17.383 6.337l-9.361 16.495c-.834 1.47-2.192 2.528-3.822 2.978-1.63.449-3.338.238-4.808-.597l-25.42-14.426c-1.471-.834-2.528-2.192-2.978-3.822s-.237-3.337.597-4.808l9.387-16.542c3.468-6.111 2.015-13.747-3.455-18.156-9.227-7.44-17.852-15.721-25.634-24.613-4.626-5.287-12.315-6.43-18.28-2.72l-16.145 10.045c-2.965 1.843-6.876.933-8.719-2.031l-15.44-24.818c-1.844-2.963-.933-6.875 2.031-8.719l16.101-10.017c5.97-3.714 8.338-11.126 5.63-17.624-6.08-14.586-10.448-29.914-12.984-45.557-1.128-6.953-7.054-12-14.091-12h-18.995c-3.491 0-6.331-2.84-6.331-6.33v-29.229c0-3.49 2.84-6.33 6.331-6.33h18.994c7.037 0 12.963-5.046 14.091-12 2.536-15.642 6.904-30.97 12.984-45.556 2.708-6.498.34-13.91-5.63-17.624l-16.101-10.017c-2.964-1.844-3.875-5.755-2.031-8.719l15.44-24.818c1.844-2.962 5.754-3.874 8.719-2.031l16.146 10.045c5.964 3.71 13.651 2.568 18.28-2.72 7.782-8.892 16.406-17.173 25.633-24.613 5.471-4.41 6.924-12.046 3.456-18.156l-9.388-16.542c-.834-1.471-1.047-3.178-.597-4.808s1.507-2.987 2.978-3.822l25.42-14.426c1.47-.835 3.178-1.047 4.808-.597s2.987 1.508 3.822 2.978l9.361 16.494c3.469 6.114 10.779 8.778 17.382 6.337 12.235-4.525 24.981-7.881 37.884-9.974 6.955-1.128 12.002-7.054 12.002-14.092v-18.993c0-3.49 2.84-6.33 6.33-6.33h29.229c3.49 0 6.33 2.84 6.33 6.33v18.994c0 7.038 5.048 12.964 12.002 14.092 12.903 2.093 25.649 5.449 37.884 9.974 6.602 2.44 13.913-.223 17.382-6.337l9.361-16.495c.834-1.47 2.192-2.528 3.822-2.978s3.337-.238 4.808.597l25.42 14.426c1.471.834 2.528 2.192 2.978 3.822s.237 3.337-.597 4.808l-9.387 16.542c-3.469 6.111-2.016 13.747 3.455 18.157 9.228 7.44 17.852 15.722 25.634 24.614 4.628 5.286 12.316 6.43 18.28 2.719l16.146-10.045c2.965-1.844 6.876-.933 8.719 2.031l15.44 24.818c1.844 2.963.933 6.875-2.031 8.719l-16.101 10.017c-5.97 3.714-8.338 11.126-5.63 17.624 6.08 14.586 10.448 29.914 12.984 45.557 1.128 6.953 7.054 12 14.091 12h18.994c3.491 0 6.331 2.84 6.331 6.33v29.229c0 3.49-2.84 6.33-6.331 6.33h-18.994c-7.037 0-12.963 5.046-14.091 12-.413 2.544-.914 5.234-1.579 8.464-.835 4.057 1.777 8.023 5.834 8.858 4.055.836 8.023-1.777 8.858-5.834.657-3.194 1.168-5.91 1.595-8.488h18.376c11.762 0 21.331-9.569 21.331-21.33v-29.229c-.001-11.763-9.569-21.332-21.331-21.332z"/><path d="m361.665 116.249c-30.641-23.23-67.205-35.509-105.737-35.509-96.599 0-175.188 78.589-175.188 175.188s78.589 175.188 175.188 175.188 175.188-78.589 175.188-175.188c0-43.31-15.938-84.89-44.878-117.08-2.769-3.08-7.511-3.333-10.591-.563-3.081 2.77-3.333 7.512-.563 10.592 26.46 29.432 41.032 67.45 41.032 107.051 0 88.328-71.86 160.188-160.188 160.188s-160.188-71.86-160.188-160.188 71.86-160.188 160.188-160.188c35.233 0 68.663 11.225 96.675 32.461 3.301 2.503 8.005 1.855 10.507-1.445 2.503-3.301 1.856-8.005-1.445-10.507z"/><path d="m255.928 112.885c-78.874 0-143.043 64.169-143.043 143.043s64.169 143.043 143.043 143.043 143.043-64.169 143.043-143.043-64.169-143.043-143.043-143.043zm0 271.086c-70.603 0-128.043-57.44-128.043-128.043s57.44-128.043 128.043-128.043 128.043 57.44 128.043 128.043-57.44 128.043-128.043 128.043z"/><path d="m255.928 181.391c-22.899 0-44.204 10.318-58.45 28.31-2.571 3.247-2.023 7.964 1.224 10.536 3.247 2.571 7.964 2.023 10.536-1.224 11.384-14.376 28.402-22.622 46.69-22.622 32.829 0 59.537 26.708 59.537 59.537s-26.708 59.537-59.537 59.537-59.537-26.708-59.537-59.537c0-3.672.354-7.407 1.05-11.103.768-4.071-1.91-7.993-5.98-8.76-4.078-.768-7.993 1.91-8.76 5.98-.869 4.61-1.31 9.28-1.31 13.883 0 41.1 33.437 74.537 74.537 74.537s74.537-33.437 74.537-74.537-33.437-74.537-74.537-74.537z"/></g></svg>